<mxfile host="app.diagrams.net" modified="2020-09-02T05:34:24.661Z" agent="5.0 (Windows)" etag="Koyxw-M4vRE47cZQmnjx" version="13.6.6" type="github">
  <diagram id="8H9E2ptjqNLhqbZR2ry7" name="Page-1">
    <mxGraphModel dx="1422" dy="791" grid="1" gridSize="10" guides="1" tooltips="1" connect="1" arrows="1" fold="1" page="1" pageScale="1" pageWidth="850" pageHeight="1100" math="0" shadow="0">
      <root>
        <mxCell id="0" />
        <mxCell id="1" parent="0" />
        <mxCell id="oS58zShL6NZHC2Msg9gu-13" value="" style="edgeStyle=orthogonalEdgeStyle;rounded=0;orthogonalLoop=1;jettySize=auto;html=1;entryX=0.5;entryY=0;entryDx=0;entryDy=0;exitX=0.5;exitY=1;exitDx=0;exitDy=0;" edge="1" parent="1" source="oS58zShL6NZHC2Msg9gu-1" target="oS58zShL6NZHC2Msg9gu-4">
          <mxGeometry relative="1" as="geometry">
            <Array as="points">
              <mxPoint x="410" y="140" />
              <mxPoint x="410" y="180" />
              <mxPoint x="250" y="180" />
            </Array>
          </mxGeometry>
        </mxCell>
        <mxCell id="oS58zShL6NZHC2Msg9gu-14" value="&lt;div&gt;Iteration from 0-100 percent&lt;/div&gt;" style="edgeLabel;html=1;align=center;verticalAlign=middle;resizable=0;points=[];" vertex="1" connectable="0" parent="oS58zShL6NZHC2Msg9gu-13">
          <mxGeometry x="-0.1122" y="3" relative="1" as="geometry">
            <mxPoint x="-40" y="-3" as="offset" />
          </mxGeometry>
        </mxCell>
        <mxCell id="oS58zShL6NZHC2Msg9gu-27" style="edgeStyle=orthogonalEdgeStyle;rounded=0;orthogonalLoop=1;jettySize=auto;html=1;entryX=0.5;entryY=0;entryDx=0;entryDy=0;" edge="1" parent="1" source="oS58zShL6NZHC2Msg9gu-1" target="oS58zShL6NZHC2Msg9gu-23">
          <mxGeometry relative="1" as="geometry" />
        </mxCell>
        <mxCell id="oS58zShL6NZHC2Msg9gu-28" value="&lt;div&gt;Iterates and &lt;br&gt;passes through percentage&lt;/div&gt;" style="edgeLabel;html=1;align=center;verticalAlign=middle;resizable=0;points=[];" vertex="1" connectable="0" parent="oS58zShL6NZHC2Msg9gu-27">
          <mxGeometry x="-0.2828" y="2" relative="1" as="geometry">
            <mxPoint x="38" y="-3" as="offset" />
          </mxGeometry>
        </mxCell>
        <mxCell id="oS58zShL6NZHC2Msg9gu-1" value="&lt;div&gt;Motion Object&lt;/div&gt;" style="rounded=0;whiteSpace=wrap;html=1;" vertex="1" parent="1">
          <mxGeometry x="380" y="110" width="120" height="30" as="geometry" />
        </mxCell>
        <mxCell id="oS58zShL6NZHC2Msg9gu-2" value="&lt;font style=&quot;font-size: 18px&quot;&gt;Flowchart for Control System Cycling Process&lt;br&gt;&lt;/font&gt;" style="text;html=1;strokeColor=none;fillColor=none;align=center;verticalAlign=middle;whiteSpace=wrap;rounded=0;" vertex="1" parent="1">
          <mxGeometry x="40" y="30" width="250" height="80" as="geometry" />
        </mxCell>
        <mxCell id="oS58zShL6NZHC2Msg9gu-9" value="&lt;div&gt;Sequential access&lt;br&gt;from 0.00 to 1.00 for each&lt;/div&gt;" style="edgeStyle=orthogonalEdgeStyle;rounded=0;orthogonalLoop=1;jettySize=auto;html=1;exitX=0.5;exitY=1;exitDx=0;exitDy=0;entryX=0.5;entryY=0;entryDx=0;entryDy=0;" edge="1" parent="1" source="oS58zShL6NZHC2Msg9gu-4" target="oS58zShL6NZHC2Msg9gu-10">
          <mxGeometry x="0.5263" y="-15" relative="1" as="geometry">
            <mxPoint x="160" y="380" as="targetPoint" />
            <Array as="points">
              <mxPoint x="220" y="320" />
              <mxPoint x="220" y="355" />
              <mxPoint x="130" y="355" />
            </Array>
            <mxPoint as="offset" />
          </mxGeometry>
        </mxCell>
        <mxCell id="oS58zShL6NZHC2Msg9gu-21" value="Percentage based&lt;br&gt;speed determination" style="edgeStyle=orthogonalEdgeStyle;rounded=0;orthogonalLoop=1;jettySize=auto;html=1;entryX=0.5;entryY=0;entryDx=0;entryDy=0;" edge="1" parent="1" source="oS58zShL6NZHC2Msg9gu-4" target="oS58zShL6NZHC2Msg9gu-19">
          <mxGeometry x="0.1875" y="15" relative="1" as="geometry">
            <mxPoint as="offset" />
          </mxGeometry>
        </mxCell>
        <mxCell id="oS58zShL6NZHC2Msg9gu-25" value="Indirect output through editing XYAT[]&lt;br&gt;(DONE)&lt;br&gt;And other global variables for speed&lt;br&gt;and additional features&lt;br&gt;(TO BE IMPLEMENTED)" style="edgeStyle=orthogonalEdgeStyle;rounded=0;orthogonalLoop=1;jettySize=auto;html=1;exitX=0;exitY=0.5;exitDx=0;exitDy=0;entryX=0.5;entryY=1;entryDx=0;entryDy=0;" edge="1" parent="1" source="oS58zShL6NZHC2Msg9gu-4" target="oS58zShL6NZHC2Msg9gu-24">
          <mxGeometry x="0.3171" relative="1" as="geometry">
            <mxPoint x="115" y="220" as="targetPoint" />
            <mxPoint as="offset" />
          </mxGeometry>
        </mxCell>
        <mxCell id="oS58zShL6NZHC2Msg9gu-4" value="&lt;div&gt;Compositebezier&lt;/div&gt;&lt;div&gt;(only one)&lt;br&gt;&lt;/div&gt;" style="rounded=0;whiteSpace=wrap;html=1;" vertex="1" parent="1">
          <mxGeometry x="190" y="280" width="120" height="40" as="geometry" />
        </mxCell>
        <mxCell id="oS58zShL6NZHC2Msg9gu-10" value="BezierNP Array" style="rounded=0;whiteSpace=wrap;html=1;" vertex="1" parent="1">
          <mxGeometry x="70" y="390" width="120" height="30" as="geometry" />
        </mxCell>
        <mxCell id="oS58zShL6NZHC2Msg9gu-19" value="&lt;div&gt;DualSCurve&lt;/div&gt;" style="rounded=0;whiteSpace=wrap;html=1;" vertex="1" parent="1">
          <mxGeometry x="300" y="400" width="120" height="30" as="geometry" />
        </mxCell>
        <mxCell id="oS58zShL6NZHC2Msg9gu-35" value="&lt;div&gt;An internal completion&lt;/div&gt;&lt;div&gt;param is read to check&lt;br&gt;completion. &lt;br&gt;&lt;/div&gt;" style="edgeStyle=orthogonalEdgeStyle;rounded=0;orthogonalLoop=1;jettySize=auto;html=1;entryX=0.25;entryY=1;entryDx=0;entryDy=0;" edge="1" parent="1" source="oS58zShL6NZHC2Msg9gu-30" target="oS58zShL6NZHC2Msg9gu-23">
          <mxGeometry x="-0.4019" y="-50" relative="1" as="geometry">
            <Array as="points">
              <mxPoint x="490" y="270" />
              <mxPoint x="608" y="270" />
            </Array>
            <mxPoint x="40" y="-80" as="offset" />
          </mxGeometry>
        </mxCell>
        <mxCell id="oS58zShL6NZHC2Msg9gu-37" value="&lt;div&gt;Arraylist for MotorSys&lt;/div&gt;&lt;div&gt;function call&lt;/div&gt;" style="edgeStyle=orthogonalEdgeStyle;rounded=0;orthogonalLoop=1;jettySize=auto;html=1;entryX=0.75;entryY=0;entryDx=0;entryDy=0;exitX=1;exitY=0.75;exitDx=0;exitDy=0;" edge="1" parent="1" source="oS58zShL6NZHC2Msg9gu-23" target="oS58zShL6NZHC2Msg9gu-36">
          <mxGeometry x="0.2222" y="15" relative="1" as="geometry">
            <mxPoint x="740" y="280" as="targetPoint" />
            <Array as="points">
              <mxPoint x="835" y="190" />
            </Array>
            <mxPoint as="offset" />
          </mxGeometry>
        </mxCell>
        <mxCell id="oS58zShL6NZHC2Msg9gu-46" value="&lt;div&gt;Once the percent activation&lt;/div&gt;&lt;div&gt; threshold and all MotorSysInterfaces&lt;/div&gt;&lt;div&gt;are reading true can the&lt;br&gt; MotorSys instance be called&lt;br&gt;&lt;/div&gt;" style="edgeStyle=orthogonalEdgeStyle;rounded=0;orthogonalLoop=1;jettySize=auto;html=1;entryX=0.5;entryY=0;entryDx=0;entryDy=0;" edge="1" parent="1" source="oS58zShL6NZHC2Msg9gu-23" target="oS58zShL6NZHC2Msg9gu-45">
          <mxGeometry x="0.2093" y="5" relative="1" as="geometry">
            <mxPoint as="offset" />
          </mxGeometry>
        </mxCell>
        <mxCell id="oS58zShL6NZHC2Msg9gu-23" value="&lt;div&gt;MotorSysInterface&lt;br&gt;&lt;/div&gt;(In an array)" style="rounded=0;whiteSpace=wrap;html=1;" vertex="1" parent="1">
          <mxGeometry x="570" y="160" width="150" height="40" as="geometry" />
        </mxCell>
        <mxCell id="oS58zShL6NZHC2Msg9gu-24" value="CoordController" style="rhombus;whiteSpace=wrap;html=1;" vertex="1" parent="1">
          <mxGeometry x="40" y="120" width="170" height="40" as="geometry" />
        </mxCell>
        <mxCell id="oS58zShL6NZHC2Msg9gu-87" value="&lt;font style=&quot;font-size: 11px&quot;&gt;Direct updates via NC()&lt;br&gt;Actions actually happen&lt;br&gt;internally when the MotorSys&lt;br&gt;Iterator calls update()&lt;br&gt;&lt;/font&gt;" style="edgeStyle=orthogonalEdgeStyle;rounded=0;orthogonalLoop=1;jettySize=auto;html=1;fontSize=12;" edge="1" parent="1" source="oS58zShL6NZHC2Msg9gu-30">
          <mxGeometry x="0.1304" y="-10" relative="1" as="geometry">
            <mxPoint x="360" y="240" as="targetPoint" />
            <Array as="points">
              <mxPoint x="400" y="320" />
              <mxPoint x="400" y="270" />
              <mxPoint x="360" y="270" />
            </Array>
            <mxPoint as="offset" />
          </mxGeometry>
        </mxCell>
        <mxCell id="oS58zShL6NZHC2Msg9gu-30" value="Polymorphic MotorSys pointer" style="rounded=0;whiteSpace=wrap;html=1;" vertex="1" parent="1">
          <mxGeometry x="420" y="350" width="120" height="40" as="geometry" />
        </mxCell>
        <mxCell id="oS58zShL6NZHC2Msg9gu-49" value="&lt;div&gt;Params are dumped in the MotorSys&lt;/div&gt;&lt;div&gt;NC() function. MotorSys internally processes&lt;br&gt;params upon update&lt;br&gt;&lt;/div&gt;" style="edgeStyle=orthogonalEdgeStyle;rounded=0;orthogonalLoop=1;jettySize=auto;html=1;entryX=0.5;entryY=1;entryDx=0;entryDy=0;" edge="1" parent="1" source="oS58zShL6NZHC2Msg9gu-36" target="oS58zShL6NZHC2Msg9gu-30">
          <mxGeometry x="0.0323" y="-10" relative="1" as="geometry">
            <mxPoint as="offset" />
          </mxGeometry>
        </mxCell>
        <mxCell id="oS58zShL6NZHC2Msg9gu-36" value="Stored output params, in an arraylist" style="rounded=0;whiteSpace=wrap;html=1;" vertex="1" parent="1">
          <mxGeometry x="700" y="430" width="180" height="40" as="geometry" />
        </mxCell>
        <mxCell id="oS58zShL6NZHC2Msg9gu-43" value="Internal MotorSysInterface&lt;br&gt;&lt;div&gt;pointer for &lt;br&gt;&lt;/div&gt;&lt;div&gt;sequential operations of&lt;/div&gt;&lt;div&gt;multiple Sysinterfaces.&lt;br&gt;Reads completion bool&lt;br&gt;&lt;/div&gt;" style="edgeStyle=orthogonalEdgeStyle;rounded=0;orthogonalLoop=1;jettySize=auto;html=1;" edge="1" parent="1" source="oS58zShL6NZHC2Msg9gu-23">
          <mxGeometry relative="1" as="geometry">
            <mxPoint x="720" y="170" as="targetPoint" />
            <Array as="points">
              <mxPoint x="700" y="120" />
              <mxPoint x="790" y="120" />
              <mxPoint x="790" y="170" />
              <mxPoint x="720" y="170" />
            </Array>
          </mxGeometry>
        </mxCell>
        <mxCell id="oS58zShL6NZHC2Msg9gu-45" value="Internal previously triggered boolean, completion boolean, and percent activation threshold" style="rounded=0;whiteSpace=wrap;html=1;" vertex="1" parent="1">
          <mxGeometry x="670" y="310" width="120" height="90" as="geometry" />
        </mxCell>
        <mxCell id="oS58zShL6NZHC2Msg9gu-55" style="edgeStyle=orthogonalEdgeStyle;rounded=0;orthogonalLoop=1;jettySize=auto;html=1;entryX=0.5;entryY=0;entryDx=0;entryDy=0;" edge="1" parent="1" source="oS58zShL6NZHC2Msg9gu-50" target="oS58zShL6NZHC2Msg9gu-52">
          <mxGeometry relative="1" as="geometry" />
        </mxCell>
        <mxCell id="oS58zShL6NZHC2Msg9gu-56" style="edgeStyle=orthogonalEdgeStyle;rounded=0;orthogonalLoop=1;jettySize=auto;html=1;" edge="1" parent="1" source="oS58zShL6NZHC2Msg9gu-50" target="oS58zShL6NZHC2Msg9gu-54">
          <mxGeometry relative="1" as="geometry" />
        </mxCell>
        <mxCell id="oS58zShL6NZHC2Msg9gu-78" style="edgeStyle=orthogonalEdgeStyle;rounded=0;orthogonalLoop=1;jettySize=auto;html=1;entryX=0.5;entryY=0;entryDx=0;entryDy=0;" edge="1" parent="1" source="oS58zShL6NZHC2Msg9gu-50" target="oS58zShL6NZHC2Msg9gu-79">
          <mxGeometry relative="1" as="geometry">
            <mxPoint x="720" y="650" as="targetPoint" />
            <Array as="points">
              <mxPoint x="680" y="580" />
              <mxPoint x="680" y="620" />
              <mxPoint x="1060" y="620" />
            </Array>
          </mxGeometry>
        </mxCell>
        <mxCell id="oS58zShL6NZHC2Msg9gu-82" style="edgeStyle=orthogonalEdgeStyle;rounded=0;orthogonalLoop=1;jettySize=auto;html=1;entryX=0;entryY=0.5;entryDx=0;entryDy=0;" edge="1" parent="1" source="oS58zShL6NZHC2Msg9gu-50" target="oS58zShL6NZHC2Msg9gu-81">
          <mxGeometry relative="1" as="geometry">
            <Array as="points">
              <mxPoint x="680" y="580" />
              <mxPoint x="680" y="710" />
            </Array>
          </mxGeometry>
        </mxCell>
        <mxCell id="oS58zShL6NZHC2Msg9gu-84" style="edgeStyle=orthogonalEdgeStyle;rounded=0;orthogonalLoop=1;jettySize=auto;html=1;entryX=1;entryY=0.5;entryDx=0;entryDy=0;fontSize=18;" edge="1" parent="1" source="oS58zShL6NZHC2Msg9gu-50" target="oS58zShL6NZHC2Msg9gu-83">
          <mxGeometry relative="1" as="geometry" />
        </mxCell>
        <mxCell id="oS58zShL6NZHC2Msg9gu-50" value="&lt;font style=&quot;font-size: 24px&quot;&gt;MotorSys&lt;/font&gt;" style="rounded=0;whiteSpace=wrap;html=1;" vertex="1" parent="1">
          <mxGeometry x="330" y="540" width="220" height="80" as="geometry" />
        </mxCell>
        <mxCell id="oS58zShL6NZHC2Msg9gu-89" style="edgeStyle=orthogonalEdgeStyle;rounded=0;orthogonalLoop=1;jettySize=auto;html=1;fontSize=12;" edge="1" parent="1" source="oS58zShL6NZHC2Msg9gu-52" target="oS58zShL6NZHC2Msg9gu-90">
          <mxGeometry relative="1" as="geometry">
            <mxPoint x="140" y="600" as="targetPoint" />
          </mxGeometry>
        </mxCell>
        <mxCell id="oS58zShL6NZHC2Msg9gu-52" value="&lt;div&gt;&lt;font style=&quot;font-size: 18px&quot;&gt;NC(Arraylist A)&lt;/font&gt;&lt;/div&gt;Framework for parameter updates in derived classes" style="rounded=0;whiteSpace=wrap;html=1;" vertex="1" parent="1">
          <mxGeometry x="240" y="690" width="170" height="50" as="geometry" />
        </mxCell>
        <mxCell id="oS58zShL6NZHC2Msg9gu-54" value="&lt;div&gt;&lt;font style=&quot;font-size: 18px&quot;&gt;Update()&lt;br&gt;&lt;/font&gt;&lt;/div&gt;Framework for motor update calls in derived classes" style="rounded=0;whiteSpace=wrap;html=1;" vertex="1" parent="1">
          <mxGeometry x="470" y="690" width="170" height="50" as="geometry" />
        </mxCell>
        <mxCell id="oS58zShL6NZHC2Msg9gu-66" style="edgeStyle=orthogonalEdgeStyle;rounded=0;orthogonalLoop=1;jettySize=auto;html=1;" edge="1" parent="1" source="oS58zShL6NZHC2Msg9gu-58" target="oS58zShL6NZHC2Msg9gu-70">
          <mxGeometry relative="1" as="geometry">
            <mxPoint x="1270" y="120" as="targetPoint" />
          </mxGeometry>
        </mxCell>
        <mxCell id="oS58zShL6NZHC2Msg9gu-58" value="Autonomous Loop Structure" style="rounded=0;whiteSpace=wrap;html=1;" vertex="1" parent="1">
          <mxGeometry x="1155" y="70" width="185" height="20" as="geometry" />
        </mxCell>
        <mxCell id="oS58zShL6NZHC2Msg9gu-67" value="Passes through current motion" style="edgeStyle=orthogonalEdgeStyle;rounded=0;orthogonalLoop=1;jettySize=auto;html=1;entryX=0.5;entryY=0;entryDx=0;entryDy=0;exitX=0.75;exitY=1;exitDx=0;exitDy=0;" edge="1" parent="1" source="oS58zShL6NZHC2Msg9gu-59" target="oS58zShL6NZHC2Msg9gu-63">
          <mxGeometry x="0.5676" relative="1" as="geometry">
            <mxPoint as="offset" />
          </mxGeometry>
        </mxCell>
        <mxCell id="oS58zShL6NZHC2Msg9gu-69" style="edgeStyle=orthogonalEdgeStyle;rounded=0;orthogonalLoop=1;jettySize=auto;html=1;" edge="1" parent="1" source="oS58zShL6NZHC2Msg9gu-59" target="oS58zShL6NZHC2Msg9gu-64">
          <mxGeometry relative="1" as="geometry" />
        </mxCell>
        <mxCell id="oS58zShL6NZHC2Msg9gu-59" value="Motion Iterator" style="rounded=0;whiteSpace=wrap;html=1;" vertex="1" parent="1">
          <mxGeometry x="1187.5" y="160" width="120" height="20" as="geometry" />
        </mxCell>
        <mxCell id="oS58zShL6NZHC2Msg9gu-65" value="Provides &lt;br&gt;Motion&lt;br&gt;Instances" style="edgeStyle=orthogonalEdgeStyle;rounded=0;orthogonalLoop=1;jettySize=auto;html=1;entryX=0;entryY=0.5;entryDx=0;entryDy=0;" edge="1" parent="1" source="oS58zShL6NZHC2Msg9gu-61" target="oS58zShL6NZHC2Msg9gu-59">
          <mxGeometry relative="1" as="geometry" />
        </mxCell>
        <mxCell id="oS58zShL6NZHC2Msg9gu-61" value="Motion Array" style="rounded=0;whiteSpace=wrap;html=1;" vertex="1" parent="1">
          <mxGeometry x="960" y="140" width="120" height="60" as="geometry" />
        </mxCell>
        <mxCell id="oS58zShL6NZHC2Msg9gu-68" value="Percentage Iteration completes&lt;br&gt;to iterate this iterator" style="edgeStyle=orthogonalEdgeStyle;rounded=0;orthogonalLoop=1;jettySize=auto;html=1;entryX=1;entryY=0.5;entryDx=0;entryDy=0;" edge="1" parent="1" source="oS58zShL6NZHC2Msg9gu-63" target="oS58zShL6NZHC2Msg9gu-59">
          <mxGeometry x="0.0787" relative="1" as="geometry">
            <Array as="points">
              <mxPoint x="1460" y="230" />
              <mxPoint x="1460" y="170" />
            </Array>
            <mxPoint as="offset" />
          </mxGeometry>
        </mxCell>
        <mxCell id="oS58zShL6NZHC2Msg9gu-75" value="If incomplete&lt;br&gt;skip iteration &lt;br&gt;of motion array" style="edgeStyle=orthogonalEdgeStyle;rounded=0;orthogonalLoop=1;jettySize=auto;html=1;entryX=1;entryY=0.5;entryDx=0;entryDy=0;" edge="1" parent="1" source="oS58zShL6NZHC2Msg9gu-63" target="oS58zShL6NZHC2Msg9gu-64">
          <mxGeometry x="-0.2821" relative="1" as="geometry">
            <mxPoint as="offset" />
          </mxGeometry>
        </mxCell>
        <mxCell id="oS58zShL6NZHC2Msg9gu-63" value="Motion Percent Iterator" style="rounded=0;whiteSpace=wrap;html=1;" vertex="1" parent="1">
          <mxGeometry x="1290" y="220" width="160" height="20" as="geometry" />
        </mxCell>
        <mxCell id="oS58zShL6NZHC2Msg9gu-72" value="Loops until out of motions to iterate" style="edgeStyle=orthogonalEdgeStyle;rounded=0;orthogonalLoop=1;jettySize=auto;html=1;entryX=1;entryY=0.5;entryDx=0;entryDy=0;exitX=0.5;exitY=1;exitDx=0;exitDy=0;" edge="1" parent="1" source="oS58zShL6NZHC2Msg9gu-93" target="oS58zShL6NZHC2Msg9gu-58">
          <mxGeometry relative="1" as="geometry">
            <Array as="points">
              <mxPoint x="1248" y="400" />
              <mxPoint x="1500" y="400" />
              <mxPoint x="1500" y="80" />
            </Array>
          </mxGeometry>
        </mxCell>
        <mxCell id="oS58zShL6NZHC2Msg9gu-95" style="edgeStyle=orthogonalEdgeStyle;rounded=0;orthogonalLoop=1;jettySize=auto;html=1;entryX=0.5;entryY=0;entryDx=0;entryDy=0;fontSize=12;" edge="1" parent="1" source="oS58zShL6NZHC2Msg9gu-64" target="oS58zShL6NZHC2Msg9gu-93">
          <mxGeometry relative="1" as="geometry" />
        </mxCell>
        <mxCell id="oS58zShL6NZHC2Msg9gu-64" value="MotorSys Iterator&lt;br&gt;(Calls Update())" style="rounded=0;whiteSpace=wrap;html=1;" vertex="1" parent="1">
          <mxGeometry x="1187.5" y="260" width="120" height="30" as="geometry" />
        </mxCell>
        <mxCell id="oS58zShL6NZHC2Msg9gu-71" style="edgeStyle=orthogonalEdgeStyle;rounded=0;orthogonalLoop=1;jettySize=auto;html=1;" edge="1" parent="1" source="oS58zShL6NZHC2Msg9gu-70" target="oS58zShL6NZHC2Msg9gu-59">
          <mxGeometry relative="1" as="geometry" />
        </mxCell>
        <mxCell id="oS58zShL6NZHC2Msg9gu-70" value="OdometryController" style="rounded=0;whiteSpace=wrap;html=1;" vertex="1" parent="1">
          <mxGeometry x="1187.5" y="110" width="120" height="20" as="geometry" />
        </mxCell>
        <mxCell id="oS58zShL6NZHC2Msg9gu-76" value="MotorSys Array" style="rounded=0;whiteSpace=wrap;html=1;" vertex="1" parent="1">
          <mxGeometry x="960" y="245" width="120" height="60" as="geometry" />
        </mxCell>
        <mxCell id="oS58zShL6NZHC2Msg9gu-77" value="Provides &lt;br&gt;MotorSys&lt;br&gt;Instances" style="edgeStyle=orthogonalEdgeStyle;rounded=0;orthogonalLoop=1;jettySize=auto;html=1;entryX=0;entryY=0.5;entryDx=0;entryDy=0;" edge="1" parent="1">
          <mxGeometry relative="1" as="geometry">
            <mxPoint x="1080" y="274.5" as="sourcePoint" />
            <mxPoint x="1187.5" y="274.5" as="targetPoint" />
          </mxGeometry>
        </mxCell>
        <mxCell id="oS58zShL6NZHC2Msg9gu-100" style="edgeStyle=orthogonalEdgeStyle;rounded=0;orthogonalLoop=1;jettySize=auto;html=1;fontSize=12;" edge="1" parent="1" source="oS58zShL6NZHC2Msg9gu-79" target="oS58zShL6NZHC2Msg9gu-97">
          <mxGeometry relative="1" as="geometry" />
        </mxCell>
        <mxCell id="oS58zShL6NZHC2Msg9gu-101" style="edgeStyle=orthogonalEdgeStyle;rounded=0;orthogonalLoop=1;jettySize=auto;html=1;fontSize=12;" edge="1" parent="1" source="oS58zShL6NZHC2Msg9gu-79" target="oS58zShL6NZHC2Msg9gu-98">
          <mxGeometry relative="1" as="geometry" />
        </mxCell>
        <mxCell id="oS58zShL6NZHC2Msg9gu-102" style="edgeStyle=orthogonalEdgeStyle;rounded=0;orthogonalLoop=1;jettySize=auto;html=1;entryX=0.5;entryY=0;entryDx=0;entryDy=0;fontSize=12;" edge="1" parent="1" source="oS58zShL6NZHC2Msg9gu-79" target="oS58zShL6NZHC2Msg9gu-99">
          <mxGeometry relative="1" as="geometry" />
        </mxCell>
        <mxCell id="oS58zShL6NZHC2Msg9gu-79" value="&lt;font style=&quot;font-size: 18px&quot;&gt;Intakes&lt;/font&gt;" style="rounded=0;whiteSpace=wrap;html=1;" vertex="1" parent="1">
          <mxGeometry x="1000" y="695" width="120" height="30" as="geometry" />
        </mxCell>
        <mxCell id="oS58zShL6NZHC2Msg9gu-81" value="Cycling System" style="rounded=0;whiteSpace=wrap;html=1;fontSize=18;" vertex="1" parent="1">
          <mxGeometry x="710" y="680" width="120" height="60" as="geometry" />
        </mxCell>
        <mxCell id="oS58zShL6NZHC2Msg9gu-83" value="&lt;div&gt;&lt;font style=&quot;font-size: 18px&quot;&gt;Bool Iscomplete&lt;br&gt;&lt;/font&gt;&lt;/div&gt;&lt;div&gt;&lt;font style=&quot;font-size: 12px&quot;&gt;Flag for NC param completion&lt;br&gt;&lt;/font&gt;&lt;/div&gt;" style="rounded=0;whiteSpace=wrap;html=1;" vertex="1" parent="1">
          <mxGeometry x="240" y="780" width="170" height="50" as="geometry" />
        </mxCell>
        <mxCell id="oS58zShL6NZHC2Msg9gu-85" value="&lt;font style=&quot;font-size: 12px&quot;&gt;An function call iterates the percentage&lt;/font&gt;" style="endArrow=classic;html=1;fontSize=18;entryX=0.5;entryY=0;entryDx=0;entryDy=0;" edge="1" parent="1" target="oS58zShL6NZHC2Msg9gu-1">
          <mxGeometry width="50" height="50" relative="1" as="geometry">
            <mxPoint x="440" y="40" as="sourcePoint" />
            <mxPoint x="465" y="10" as="targetPoint" />
          </mxGeometry>
        </mxCell>
        <mxCell id="oS58zShL6NZHC2Msg9gu-86" value="MotorSys" style="rhombus;whiteSpace=wrap;html=1;" vertex="1" parent="1">
          <mxGeometry x="300" y="200" width="170" height="40" as="geometry" />
        </mxCell>
        <mxCell id="oS58zShL6NZHC2Msg9gu-90" value="There is the edge case of what happens when a NC command fails to complete. In these cases, the next NC call will override the command" style="text;html=1;strokeColor=none;fillColor=none;align=center;verticalAlign=middle;whiteSpace=wrap;rounded=0;" vertex="1" parent="1">
          <mxGeometry x="30" y="530" width="150" height="110" as="geometry" />
        </mxCell>
        <mxCell id="oS58zShL6NZHC2Msg9gu-96" style="edgeStyle=orthogonalEdgeStyle;rounded=0;orthogonalLoop=1;jettySize=auto;html=1;entryX=1;entryY=0.5;entryDx=0;entryDy=0;fontSize=12;" edge="1" parent="1" source="oS58zShL6NZHC2Msg9gu-92" target="oS58zShL6NZHC2Msg9gu-23">
          <mxGeometry relative="1" as="geometry">
            <Array as="points">
              <mxPoint x="930" y="180" />
            </Array>
          </mxGeometry>
        </mxCell>
        <mxCell id="oS58zShL6NZHC2Msg9gu-92" value="&lt;h1&gt;Explaining the need for MotorSysInterface&lt;br&gt;&lt;/h1&gt;&lt;p&gt;Why would we ever need to have such precision when you cant even stop or suddenly change direction within a single motion?&lt;br&gt;&lt;br&gt;This system allows for us to get swooping motions, making the balls on the side of the wall accessible without stopping. In addition, it provides a method to give us inter-component coordination. For example, the cycling system could activate with the intake system, or not for cases where we don&#39;t want to intake balls like if we are only topping a tower up and end up having intake contact&lt;br&gt;&lt;/p&gt;" style="text;html=1;strokeColor=none;fillColor=none;spacing=5;spacingTop=-20;whiteSpace=wrap;overflow=hidden;rounded=0;fontSize=12;" vertex="1" parent="1">
          <mxGeometry x="890" y="350" width="310" height="260" as="geometry" />
        </mxCell>
        <mxCell id="oS58zShL6NZHC2Msg9gu-93" value="CoordController " style="rounded=0;whiteSpace=wrap;html=1;fontSize=12;" vertex="1" parent="1">
          <mxGeometry x="1187.5" y="330" width="120" height="30" as="geometry" />
        </mxCell>
        <mxCell id="oS58zShL6NZHC2Msg9gu-97" value="NC case 1/3: Intake/outtake until hold - Note: Only needed if our intakes are too big to get a scoring solution without intaking a ball" style="rounded=0;whiteSpace=wrap;html=1;fontSize=12;" vertex="1" parent="1">
          <mxGeometry x="780" y="770" width="230" height="60" as="geometry" />
        </mxCell>
        <mxCell id="oS58zShL6NZHC2Msg9gu-98" value="NC case 2: Intake until specified count has passed" style="rounded=0;whiteSpace=wrap;html=1;fontSize=12;" vertex="1" parent="1">
          <mxGeometry x="1110" y="770" width="120" height="60" as="geometry" />
        </mxCell>
        <mxCell id="oS58zShL6NZHC2Msg9gu-99" value="Sensor: We will probably have potentiometers on the intakes, that or light sensors" style="rounded=0;whiteSpace=wrap;html=1;fontSize=12;" vertex="1" parent="1">
          <mxGeometry x="970" y="840" width="180" height="50" as="geometry" />
        </mxCell>
      </root>
    </mxGraphModel>
  </diagram>
</mxfile>
